<svg xmlns="http://www.w3.org/2000/svg" width="26.751" height="26.751" viewBox="0 0 26.751 26.751">
  <g id="clock_3_" data-name="clock (3)" transform="translate(0.5 0.5)">
    <g id="Group_39179" data-name="Group 39179" transform="translate(11.878 5.974)">
      <g id="Group_39178" data-name="Group 39178">
        <path id="Path_23909" data-name="Path 23909" d="M241.754,127.954l-3.59-2.693v-5.485a1,1,0,1,0-1.995,0v5.984a1,1,0,0,0,.4.8l3.989,2.992a1,1,0,0,0,1.2-1.6Z" transform="translate(-236.169 -118.779)" fill="#fff" stroke="#080d13" stroke-width="1"/>
      </g>
    </g>
    <g id="Group_39181" data-name="Group 39181">
      <g id="Group_39180" data-name="Group 39180">
        <path id="Path_23910" data-name="Path 23910" d="M12.875,0A12.875,12.875,0,1,0,25.751,12.875,12.89,12.89,0,0,0,12.875,0Zm0,23.756A10.881,10.881,0,1,1,23.756,12.875,10.894,10.894,0,0,1,12.875,23.756Z" fill="#fff" stroke="#080d13" stroke-width="1"/>
      </g>
    </g>
  </g>
</svg>
