<svg xmlns="http://www.w3.org/2000/svg" width="25.83" height="30.537" viewBox="0 0 25.83 30.537">
  <g id="Group_39176" data-name="Group 39176" transform="translate(0.15 0.15)">
    <g id="Group_4" data-name="Group 4">
      <path id="Path_1" data-name="Path 1" d="M13.293,13.2a3.691,3.691,0,0,0,3.581-3.783,3.69,3.69,0,0,0-3.581-3.781A3.691,3.691,0,0,0,9.711,9.414,3.691,3.691,0,0,0,13.293,13.2Zm0-6.483a2.636,2.636,0,0,1,2.558,2.7,2.636,2.636,0,0,1-2.558,2.7,2.636,2.636,0,0,1-2.558-2.7A2.636,2.636,0,0,1,13.293,6.714Z" transform="translate(-0.358 1.074)" fill="#fff" stroke="#080d13" stroke-width="0.3"/>
      <path id="Path_2" data-name="Path 2" d="M14.114,28.542l7.695-11.549c2.887-4,2.469-10.571-.893-14.065a9.363,9.363,0,0,0-13.6,0C3.95,6.421,3.533,12.993,6.408,16.976ZM8.022,3.665a8.387,8.387,0,0,1,12.184,0c3.035,3.152,3.408,9.088.789,12.718L14.114,26.711,7.222,16.368C4.614,12.754,4.988,6.818,8.022,3.665Z" transform="translate(-1.4 0)" fill="#fff" stroke="#080d13" stroke-width="0.3"/>
      <path id="Path_3" data-name="Path 3" d="M17.921,20.188a.415.415,0,0,0-.473.284c-.027.177.14.338.373.359,4.475.4,6.858,1.478,6.858,2.1,0,.877-4.533,2.1-11.914,2.1S.851,23.81.851,22.933c0-.624,2.383-1.7,6.858-2.1.234-.021.4-.182.373-.359a.414.414,0,0,0-.472-.284c-4.481.4-7.61,1.53-7.61,2.745,0,1.365,4.385,2.748,12.766,2.748S25.53,24.3,25.53,22.933C25.53,21.718,22.4,20.589,17.921,20.188Z" transform="translate(0 4.556)" fill="#fff" stroke="#080d13" stroke-width="0.3"/>
    </g>
  </g>
</svg>
