<svg xmlns="http://www.w3.org/2000/svg" xmlns:xlink="http://www.w3.org/1999/xlink" width="381.091" height="46.342" viewBox="0 0 381.091 46.342">
  <defs>
    <radialGradient id="radial-gradient" cx="0.458" cy="0.476" r="0.313" gradientTransform="matrix(3.241, 0.122, 0.473, -1.174, 154.464, 13.068)" gradientUnits="objectBoundingBox">
      <stop offset="0" stop-color="#040505"/>
      <stop offset="0.299" stop-color="#191008"/>
      <stop offset="0.897" stop-color="#4f2e12"/>
    </radialGradient>
    <linearGradient id="linear-gradient" x1="43.814" y1="4.824" x2="44.381" y2="5.197" gradientUnits="objectBoundingBox">
      <stop offset="0" stop-color="#ecc159"/>
      <stop offset="0.137" stop-color="#784218"/>
      <stop offset="0.155" stop-color="#7f4a1e"/>
      <stop offset="0.184" stop-color="#92632e"/>
      <stop offset="0.22" stop-color="#b18b4a"/>
      <stop offset="0.262" stop-color="#ddc16f"/>
      <stop offset="0.291" stop-color="#feeb8c"/>
      <stop offset="0.374" stop-color="#d5a33f"/>
      <stop offset="0.405" stop-color="#d19f3d"/>
      <stop offset="0.434" stop-color="#c79439"/>
      <stop offset="0.461" stop-color="#b58231"/>
      <stop offset="0.487" stop-color="#9d6827"/>
      <stop offset="0.512" stop-color="#7e481a"/>
      <stop offset="0.516" stop-color="#784218"/>
      <stop offset="0.585" stop-color="#a8742c"/>
      <stop offset="0.654" stop-color="#d5a33f"/>
      <stop offset="0.67" stop-color="#d7a744"/>
      <stop offset="0.689" stop-color="#dfb552"/>
      <stop offset="0.71" stop-color="#eccc6b"/>
      <stop offset="0.731" stop-color="#feeb8c"/>
      <stop offset="0.733" stop-color="#fce98a"/>
      <stop offset="0.778" stop-color="#e0bb68"/>
      <stop offset="0.824" stop-color="#c8964c"/>
      <stop offset="0.869" stop-color="#b67936"/>
      <stop offset="0.914" stop-color="#a96427"/>
      <stop offset="0.958" stop-color="#a1581e"/>
      <stop offset="1" stop-color="#9f541b"/>
    </linearGradient>
    <radialGradient id="radial-gradient-2" cx="0.619" cy="0.353" fy="-0.030433446168899536" r="0.911" gradientTransform="translate(198.455 -12.099) rotate(90) scale(1 1.306)" gradientUnits="objectBoundingBox">
      <stop offset="0" stop-color="#040505"/>
      <stop offset="0.334" stop-color="#191008"/>
      <stop offset="1" stop-color="#4f2e12"/>
    </radialGradient>
    <linearGradient id="linear-gradient-2" x1="59.894" y1="106.256" x2="60.555" y2="106.256" xlink:href="#linear-gradient"/>
    <linearGradient id="linear-gradient-3" x1="1.159" y1="-0.131" x2="1.372" y2="0.872" xlink:href="#linear-gradient"/>
    <radialGradient id="radial-gradient-3" cx="0.719" cy="0.582" r="1.419" gradientTransform="matrix(-1.073, 0, 0, 1.016, 0.987, -0.012)" xlink:href="#radial-gradient"/>
  </defs>
  <g id="Group_40550" data-name="Group 40550" transform="translate(-75.314 -103.643)">
    <g id="Group_40544" data-name="Group 40544" transform="translate(75.314 103.643)">
      <path id="Path_61046" data-name="Path 61046" d="M91.383,133.879c.088.069.177.155.278.222-3.318-4.009-2.667-9.435-.815-12.677a7.657,7.657,0,0,1,1.93-2.243c.682-.534.107-2.038-.628-1.642a7.382,7.382,0,0,0-2.9,2.894c-2.235,3.885-1.491,10.278,2.131,13.446Z" transform="translate(-72.686 -100.775)" fill-rule="evenodd" fill="url(#radial-gradient)"/>
      <path id="Path_61047" data-name="Path 61047" d="M92.2,117.614c.127-.045.258-.105.4-.144-4.995,3.062-4.77,8.668-2.65,12.438a7.523,7.523,0,0,0,2.5,2.951c1.507.816-.829,2.631-1.76,1.95a8.268,8.268,0,0,1-3.313-4.151c-1.5-4.985-.484-10.912,4.821-13.044Z" transform="translate(-72.944 -100.776)" fill-rule="evenodd" fill="url(#linear-gradient)"/>
      <path id="Path_61048" data-name="Path 61048" d="M102.466,108.113c.25.092.5.212.751.3-10.951-2.3-19.181,4.956-22.184,12.211-3.035,7.284-.25,15.113,3.6,20.614-6.6-4.987-10.952-14.024-7.322-22.76,3.661-8.735,15.269-14.235,25.157-10.367Z" transform="translate(-75.173 -102.977)" fill-rule="evenodd" fill="url(#radial-gradient-2)"/>
      <path id="Path_61049" data-name="Path 61049" d="M77.025,117.082c.155-.261.269-.52.423-.749-3.149,11.072,5.647,20.451,14.558,23.674s18.706.781,25.619-4.1c-6.376,6.579-17.629,10.811-28.346,6.937-10.755-3.875-17.246-15.794-12.253-25.759Z" transform="translate(-75.314 -101.012)" fill-rule="evenodd" fill="url(#linear-gradient-2)"/>
      <path id="Path_61050" data-name="Path 61050" d="M97.882,104.3s-7.724.261-10.339,3.991c-2.145,3.059-2.556,7.164-.284,12.331a1.037,1.037,0,0,1-.2,1.134c-4.43,4.606-5.735,3.28-5.735,3.28s-5.564-5.552-1.251-12.172a.757.757,0,0,1,.045-.064c11.321-15.3,29.346-8.769,34.783.388,4.665,6.95,4.507,17.918-3.886,23.7-7.379,5.08-15.633,2.85-18.6.794-1.021-.706-.424-4.059.237-3.371,4.3,4.477,20.321-4.162,20.853-15.854,0-.034,0-.069,0-.1-.177-4.29-3.2-13.669-15.619-14.051" transform="translate(-74.666 -103.643)" fill="url(#linear-gradient-3)"/>
      <path id="Path_61051" data-name="Path 61051" d="M93.646,104.152c7.954-.969,15.652,2.071,18.37,11.038.778,3.721,2.142,13.152-11.62,18.792,2.208-.9,3.2-4.044,4.159-7.752,2.492-9.683-4.7-17.681-13.534-16.273a12.423,12.423,0,0,0-6.528,3.091c.554-2.594,1.12-7.915,9.153-8.9" transform="translate(-73.411 -103.573)" fill="url(#radial-gradient-3)"/>
    </g>
    <g id="Group_40547" data-name="Group 40547" transform="translate(133.444 104.293)">
      <g id="Group_40545" data-name="Group 40545">
        <path id="Path_61052" data-name="Path 61052" d="M123.462,104.181h9.476a12.652,12.652,0,0,1-.033,25.3h-9.444Zm9.376.675h-8.7v23.953h8.7a11.977,11.977,0,0,0,0-23.953Z" transform="translate(-123.462 -104.181)" fill="#0c101e" stroke="#1a1818" stroke-width="1"/>
        <path id="Path_61053" data-name="Path 61053" d="M166.712,116.866H146.785v12.618h-.639v-25.3h.639v12.044h19.928V104.181h.637v25.3h-.637Z" transform="translate(-118.759 -104.181)" fill="#0c101e" stroke="#1a1818" stroke-width="1"/>
        <path id="Path_61054" data-name="Path 61054" d="M169.5,129.484v-25.3h.639v25.3Z" transform="translate(-113.918 -104.181)" fill="#0c101e" stroke="#1a1818" stroke-width="1"/>
        <path id="Path_61055" data-name="Path 61055" d="M176.679,104.181h15.693v.675H177.318v11.335H191.33v.675H177.318v12.618h-.639Z" transform="translate(-112.43 -104.181)" fill="#0c101e" stroke="#1a1818" stroke-width="1"/>
        <path id="Path_61056" data-name="Path 61056" d="M190.846,129.484l11.762-25.3h.739l11.762,25.3h-.739l-3.763-8.131H195.349l-3.764,8.131Zm4.839-8.806h14.584l-7.292-15.722Z" transform="translate(-109.493 -104.181)" fill="#0c101e" stroke="#1a1818" stroke-width="1"/>
        <path id="Path_61057" data-name="Path 61057" d="M214.226,104.181H229.92v.675H214.865v11.335h14.013v.675H214.865v12.618h-.639Z" transform="translate(-104.646 -104.181)" fill="#0c101e" stroke="#1a1818" stroke-width="1"/>
      </g>
      <g id="Group_40546" data-name="Group 40546" transform="translate(143.484)">
        <path id="Path_61058" data-name="Path 61058" d="M260.651,110.228a6.123,6.123,0,0,1-3.755,5.616,6.732,6.732,0,0,1-1.661,13.259H242.308V104.181h12.3A6.07,6.07,0,0,1,260.651,110.228Zm-6.047,5.383a5.383,5.383,0,0,0,0-10.767H242.972v10.767Zm-11.631.664v12.164h12.263a6.082,6.082,0,0,0,0-12.164Z" transform="translate(-242.308 -104.181)" fill="#0c101e" stroke="#1a1818" stroke-width="1"/>
        <path id="Path_61059" data-name="Path 61059" d="M260.2,129.1l11.631-24.922h.731L284.191,129.1h-.732l-3.722-8.008H264.651l-3.722,8.008Zm4.786-8.673h14.421l-7.211-15.485Z" transform="translate(-238.599 -104.181)" fill="#0c101e" stroke="#1a1818" stroke-width="1"/>
        <path id="Path_61060" data-name="Path 61060" d="M294.184,115.712h12.528v.93a12.536,12.536,0,1,1-3.756-8.873l-.465.432a11.836,11.836,0,1,0-8.307,20.271,11.922,11.922,0,0,0,11.83-11.83v-.232h-11.83Z" transform="translate(-234.137 -104.181)" fill="#0c101e" stroke="#1a1818" stroke-width="1"/>
        <path id="Path_61061" data-name="Path 61061" d="M327.023,116.675H307.317V129.1h-.631V104.181h.631v11.863h19.706V104.181h.631V129.1h-.631Z" transform="translate(-228.962 -104.181)" fill="#0c101e" stroke="#1a1818" stroke-width="1"/>
        <path id="Path_61062" data-name="Path 61062" d="M329.172,104.181h9.372a12.461,12.461,0,0,1-.034,24.922h-9.339Zm9.272.664h-8.607v23.594h8.607a11.8,11.8,0,1,0,0-23.594Z" transform="translate(-224.3 -104.181)" fill="#0c101e" stroke="#1a1818" stroke-width="1"/>
        <path id="Path_61063" data-name="Path 61063" d="M349.237,129.1l11.63-24.922h.732L373.23,129.1H372.5l-3.722-8.008H353.69l-3.722,8.008Zm4.786-8.673h14.421l-7.211-15.485Z" transform="translate(-220.141 -104.181)" fill="#0c101e" stroke="#1a1818" stroke-width="1"/>
        <path id="Path_61064" data-name="Path 61064" d="M372.357,104.181h9.371A12.461,12.461,0,0,1,381.7,129.1h-9.339Zm9.271.664h-8.606v23.594h8.606a11.8,11.8,0,1,0,0-23.594Z" transform="translate(-215.348 -104.181)" fill="#0c101e" stroke="#1a1818" stroke-width="1"/>
      </g>
    </g>
    <g id="Group_40549" data-name="Group 40549" transform="translate(132.141 140.831)">
      <g id="Group_40548" data-name="Group 40548">
        <path id="Path_61065" data-name="Path 61065" d="M127.649,137.248l-1.513.11q-.033-1.514-1.019-1.515-1.132,0-1.131,2.334a3.712,3.712,0,0,0,.308,1.827.967.967,0,0,0,.86.479q.9,0,1.1-1.352l1.4.1a3.068,3.068,0,0,1-.823,1.952,2.335,2.335,0,0,1-1.688.669,2.41,2.41,0,0,1-1.99-.98,4.3,4.3,0,0,1-.765-2.71,4.447,4.447,0,0,1,.74-2.654,2.36,2.36,0,0,1,2.025-1.032Q127.37,134.475,127.649,137.248Z" transform="translate(-122.383 -134.439)" fill="#1a1818"/>
        <path id="Path_61066" data-name="Path 61066" d="M136.98,136.016a1.909,1.909,0,0,1,1.627.792,3.246,3.246,0,0,1,.584,1.982,3.106,3.106,0,0,1-.607,1.958,1.94,1.94,0,0,1-1.613.784,1.855,1.855,0,0,1-1.56-.776,3.224,3.224,0,0,1-.584-1.992,3.5,3.5,0,0,1,.264-1.434,2.477,2.477,0,0,1,.724-.951A1.825,1.825,0,0,1,136.98,136.016Zm.036,1.023a.623.623,0,0,0-.576.344,3.163,3.163,0,0,0-.194,1.365,3.541,3.541,0,0,0,.185,1.347.607.607,0,0,0,.577.409.633.633,0,0,0,.554-.349,2.841,2.841,0,0,0,.211-1.329,3.58,3.58,0,0,0-.187-1.415A.6.6,0,0,0,137.016,137.039Z" transform="translate(-119.803 -134.119)" fill="#1a1818"/>
        <path id="Path_61067" data-name="Path 61067" d="M150.31,137.406l-.98.3a.838.838,0,0,0-.89-.718q-.677,0-.677.478a.385.385,0,0,0,.124.3,1.442,1.442,0,0,0,.647.191,5.229,5.229,0,0,1,1.157.278,1.234,1.234,0,0,1,.594.529,1.783,1.783,0,0,1,.22.918,1.76,1.76,0,0,1-.536,1.332,2.072,2.072,0,0,1-1.5.514,1.881,1.881,0,0,1-2.083-1.568l1.134-.193q.141.712,1.013.712a1.07,1.07,0,0,0,.564-.139.424.424,0,0,0,.231-.375c0-.245-.17-.391-.511-.436a3.512,3.512,0,0,1-1.818-.615,1.529,1.529,0,0,1-.436-1.161,1.668,1.668,0,0,1,.506-1.247,1.95,1.95,0,0,1,1.419-.494,1.864,1.864,0,0,1,1.157.331A2.068,2.068,0,0,1,150.31,137.406Z" transform="translate(-117.406 -134.119)" fill="#1a1818"/>
        <path id="Path_61068" data-name="Path 61068" d="M164.615,141.422h-1.346v-2.931a6.314,6.314,0,0,0-.031-.8.533.533,0,0,0-.165-.31.52.52,0,0,0-.368-.123.732.732,0,0,0-.452.184q-.23.185-.231,1.054v2.931h-1.346v-2.931a4.035,4.035,0,0,0-.049-.82.574.574,0,0,0-.187-.3.526.526,0,0,0-.35-.116.579.579,0,0,0-.517.255,1.938,1.938,0,0,0-.17.983v2.931H158.1v-5.3h1.265v.806a1.253,1.253,0,0,1,1.285-.918,1.314,1.314,0,0,1,1.263.918,1.34,1.34,0,0,1,1.323-.918,1.378,1.378,0,0,1,.777.216,1.2,1.2,0,0,1,.465.56,3.533,3.533,0,0,1,.14,1.19Z" transform="translate(-114.979 -134.119)" fill="#1a1818"/>
        <path id="Path_61069" data-name="Path 61069" d="M176.217,139.037h-2.936q0,.141,0,.246a1.236,1.236,0,0,0,.26.855.808.808,0,0,0,.621.289q.674,0,.809-.834l1.219.105q-.511,1.835-2.073,1.835a2.045,2.045,0,0,1-1.159-.318,2.375,2.375,0,0,1-.786-.925,3.634,3.634,0,0,1,.311-3.5,1.988,1.988,0,0,1,3.109-.054A3.446,3.446,0,0,1,176.217,139.037Zm-2.94-.907H174.9q-.063-1.092-.773-1.091Q173.368,137.039,173.278,138.13Z" transform="translate(-112.126 -134.119)" fill="#1a1818"/>
        <path id="Path_61070" data-name="Path 61070" d="M185.448,137.61v2.238a1.009,1.009,0,0,0,.107.561c.072.094.241.141.508.141.123,0,.266-.006.427-.021v1.159a5.08,5.08,0,0,1-.844.115,1.585,1.585,0,0,1-1.193-.374,1.987,1.987,0,0,1-.353-1.356V137.61h-.723v-1.216h.8l.107-1.562,1.161-.105v1.667h.98v1.216Z" transform="translate(-109.738 -134.387)" fill="#1a1818"/>
        <path id="Path_61071" data-name="Path 61071" d="M195.539,134.445v1.562h-1.346v-1.562Zm0,2.008v5.3h-1.346v-5.3Z" transform="translate(-107.496 -134.445)" fill="#1a1818"/>
        <path id="Path_61072" data-name="Path 61072" d="M207.944,139.435a2.381,2.381,0,0,1-.639,1.518,2.072,2.072,0,0,1-3.027-.163,3.03,3.03,0,0,1-.608-1.984,3.122,3.122,0,0,1,.622-2.016,2.021,2.021,0,0,1,1.66-.774,1.825,1.825,0,0,1,1.385.582,2.275,2.275,0,0,1,.607,1.458l-1.256.083q-.063-.954-.714-.954-.8,0-.8,1.52a2.317,2.317,0,0,0,.225,1.285.677.677,0,0,0,.543.273q.625,0,.746-.918Z" transform="translate(-105.531 -134.119)" fill="#1a1818"/>
        <path id="Path_61073" data-name="Path 61073" d="M218.973,137.406l-.98.3a.837.837,0,0,0-.89-.718q-.677,0-.677.478a.384.384,0,0,0,.124.3,1.443,1.443,0,0,0,.648.191,5.247,5.247,0,0,1,1.157.278,1.234,1.234,0,0,1,.594.529,1.783,1.783,0,0,1,.219.918,1.763,1.763,0,0,1-.535,1.332,2.074,2.074,0,0,1-1.5.514,1.881,1.881,0,0,1-2.083-1.568l1.134-.193q.139.712,1.012.712a1.077,1.077,0,0,0,.565-.139.423.423,0,0,0,.229-.375c0-.245-.169-.391-.51-.436a3.5,3.5,0,0,1-1.818-.615,1.529,1.529,0,0,1-.436-1.161,1.663,1.663,0,0,1,.506-1.247,1.948,1.948,0,0,1,1.419-.494,1.86,1.86,0,0,1,1.155.331A2.06,2.06,0,0,1,218.973,137.406Z" transform="translate(-103.172 -134.119)" fill="#1a1818"/>
        <path id="Path_61074" data-name="Path 61074" d="M241.415,137.248l-1.514.11q-.031-1.514-1.018-1.515-1.132,0-1.132,2.334a3.712,3.712,0,0,0,.308,1.827.969.969,0,0,0,.861.479q.9,0,1.1-1.352l1.4.1a3.075,3.075,0,0,1-.825,1.952,2.33,2.33,0,0,1-1.687.669,2.412,2.412,0,0,1-1.991-.98,4.309,4.309,0,0,1-.765-2.71,4.448,4.448,0,0,1,.741-2.654,2.359,2.359,0,0,1,2.023-1.032Q241.135,134.475,241.415,137.248Z" transform="translate(-98.799 -134.439)" fill="#1a1818"/>
        <path id="Path_61075" data-name="Path 61075" d="M252.953,139.037h-2.936c0,.094,0,.176,0,.246a1.242,1.242,0,0,0,.26.855.808.808,0,0,0,.621.289q.674,0,.809-.834l1.219.105q-.509,1.835-2.073,1.835a2.045,2.045,0,0,1-1.159-.318,2.376,2.376,0,0,1-.786-.925,3.634,3.634,0,0,1,.312-3.5,1.988,1.988,0,0,1,3.109-.054A3.446,3.446,0,0,1,252.953,139.037Zm-2.941-.907h1.621q-.063-1.092-.773-1.091Q250.1,137.039,250.012,138.13Z" transform="translate(-96.219 -134.119)" fill="#1a1818"/>
        <path id="Path_61076" data-name="Path 61076" d="M264.536,141.422H263.19v-2.974a4.919,4.919,0,0,0-.036-.739.617.617,0,0,0-.176-.338.475.475,0,0,0-.351-.139q-.71,0-.71,1.216v2.974H260.57v-5.3h1.251v.9a1.975,1.975,0,0,1,.615-.823,1.245,1.245,0,0,1,.656-.184,1.4,1.4,0,0,1,1.048.407,2.337,2.337,0,0,1,.4,1.6Z" transform="translate(-93.736 -134.119)" fill="#1a1818"/>
        <path id="Path_61077" data-name="Path 61077" d="M274.051,137.61v2.238a1.009,1.009,0,0,0,.107.561c.072.094.241.141.508.141.123,0,.266-.006.427-.021v1.159a5.074,5.074,0,0,1-.845.115,1.581,1.581,0,0,1-1.192-.374,1.987,1.987,0,0,1-.352-1.356V137.61h-.723v-1.216h.8l.109-1.562,1.161-.105v1.667h.98v1.216Z" transform="translate(-91.37 -134.387)" fill="#1a1818"/>
        <path id="Path_61078" data-name="Path 61078" d="M286.9,139.037h-2.936c0,.094,0,.176,0,.246a1.241,1.241,0,0,0,.26.855.811.811,0,0,0,.622.289c.448,0,.718-.279.808-.834l1.221.105q-.511,1.835-2.074,1.835a2.051,2.051,0,0,1-1.159-.318,2.375,2.375,0,0,1-.786-.925,3.63,3.63,0,0,1,.313-3.5,1.987,1.987,0,0,1,3.108-.054A3.446,3.446,0,0,1,286.9,139.037Zm-2.941-.907h1.621q-.063-1.092-.773-1.091Q284.05,137.039,283.96,138.13Z" transform="translate(-89.181 -134.119)" fill="#1a1818"/>
        <path id="Path_61079" data-name="Path 61079" d="M295.824,141.423h-1.306v-5.3h1.234v.985q.284-1.1.984-1.1a2.2,2.2,0,0,1,.244.016v1.542a1.176,1.176,0,0,0-.639.146,1.048,1.048,0,0,0-.373.528,2.956,2.956,0,0,0-.144,1.025Z" transform="translate(-86.698 -134.12)" fill="#1a1818"/>
        <path id="Path_61080" data-name="Path 61080" d="M319.5,137.248l-1.513.11q-.033-1.514-1.019-1.515-1.132,0-1.131,2.334a3.713,3.713,0,0,0,.308,1.827.966.966,0,0,0,.86.479q.9,0,1.1-1.352l1.4.1a3.068,3.068,0,0,1-.825,1.952,2.33,2.33,0,0,1-1.687.669,2.408,2.408,0,0,1-1.99-.98,4.3,4.3,0,0,1-.767-2.71,4.448,4.448,0,0,1,.741-2.654,2.359,2.359,0,0,1,2.023-1.032Q319.218,134.475,319.5,137.248Z" transform="translate(-82.612 -134.439)" fill="#1a1818"/>
        <path id="Path_61081" data-name="Path 61081" d="M328.827,136.016a1.909,1.909,0,0,1,1.628.792,3.254,3.254,0,0,1,.584,1.982,3.106,3.106,0,0,1-.607,1.958,1.941,1.941,0,0,1-1.613.784,1.854,1.854,0,0,1-1.56-.776,3.217,3.217,0,0,1-.584-1.992,3.5,3.5,0,0,1,.264-1.434,2.465,2.465,0,0,1,.724-.951A1.823,1.823,0,0,1,328.827,136.016Zm.036,1.023a.625.625,0,0,0-.577.344,3.168,3.168,0,0,0-.193,1.365,3.54,3.54,0,0,0,.185,1.347.606.606,0,0,0,.577.409.631.631,0,0,0,.553-.349,2.836,2.836,0,0,0,.213-1.329,3.579,3.579,0,0,0-.187-1.415A.605.605,0,0,0,328.863,137.039Z" transform="translate(-80.032 -134.119)" fill="#1a1818"/>
        <path id="Path_61082" data-name="Path 61082" d="M345.173,141.422h-1.346v-2.931a6.325,6.325,0,0,0-.031-.8.533.533,0,0,0-.165-.31.52.52,0,0,0-.368-.123.732.732,0,0,0-.452.184q-.23.185-.231,1.054v2.931h-1.346v-2.931a4.038,4.038,0,0,0-.049-.82.574.574,0,0,0-.187-.3.526.526,0,0,0-.35-.116.579.579,0,0,0-.517.255,1.937,1.937,0,0,0-.17.983v2.931h-1.305v-5.3h1.265v.806a1.253,1.253,0,0,1,1.285-.918,1.314,1.314,0,0,1,1.263.918,1.34,1.34,0,0,1,1.323-.918,1.379,1.379,0,0,1,.778.216,1.2,1.2,0,0,1,.465.56,3.533,3.533,0,0,1,.14,1.19Z" transform="translate(-77.548 -134.119)" fill="#1a1818"/>
        <path id="Path_61083" data-name="Path 61083" d="M352.634,143.209v-7.082h1.237v.775a1.221,1.221,0,0,1,1.2-.886,1.42,1.42,0,0,1,1.213.691,3.538,3.538,0,0,1,.472,2.005,3.8,3.8,0,0,1-.477,2.109,1.437,1.437,0,0,1-1.24.711,1.134,1.134,0,0,1-1.1-.7v2.375Zm1.305-4.1a3.371,3.371,0,0,0,.059.776.791.791,0,0,0,.249.385.552.552,0,0,0,.9-.157,3.048,3.048,0,0,0,.217-1.445q0-1.566-.715-1.567a.634.634,0,0,0-.493.278,1.545,1.545,0,0,0-.221.944Z" transform="translate(-74.65 -134.119)" fill="#1a1818"/>
        <path id="Path_61084" data-name="Path 61084" d="M368.459,141.422h-1.306a4.371,4.371,0,0,1-.063-.829,2.029,2.029,0,0,1-.683.753,1.6,1.6,0,0,1-.774.186,1.383,1.383,0,0,1-1.035-.4,1.482,1.482,0,0,1-.395-1.084,1.876,1.876,0,0,1,.231-.918,1.557,1.557,0,0,1,.739-.658,6.187,6.187,0,0,1,1.858-.355v-.3c0-.514-.22-.771-.662-.771q-.706,0-.788.771l-1.242-.136a1.667,1.667,0,0,1,.736-1.28,2.611,2.611,0,0,1,1.392-.378,2.959,2.959,0,0,1,.877.127,1.394,1.394,0,0,1,.641.377,1.347,1.347,0,0,1,.312.532,4,4,0,0,1,.081.978v2.4A4.207,4.207,0,0,0,368.459,141.422Zm-1.428-2.538q-1.409.163-1.409.991a.789.789,0,0,0,.148.479.5.5,0,0,0,.424.2.712.712,0,0,0,.6-.343,1.441,1.441,0,0,0,.24-.848Z" transform="translate(-72.252 -134.119)" fill="#1a1818"/>
        <path id="Path_61085" data-name="Path 61085" d="M380.21,141.422h-1.346v-2.974a4.911,4.911,0,0,0-.036-.739.625.625,0,0,0-.176-.338.476.476,0,0,0-.352-.139q-.708,0-.709,1.216v2.974h-1.346v-5.3h1.251v.9a1.965,1.965,0,0,1,.615-.823,1.245,1.245,0,0,1,.656-.184,1.4,1.4,0,0,1,1.048.407,2.338,2.338,0,0,1,.4,1.6Z" transform="translate(-69.755 -134.119)" fill="#1a1818"/>
        <path id="Path_61086" data-name="Path 61086" d="M391.675,136.108l-1.431,5.079a9.853,9.853,0,0,1-.409,1.23,1.474,1.474,0,0,1-.488.609,1.514,1.514,0,0,1-.889.228,3.793,3.793,0,0,1-.646-.064v-1.2a3.359,3.359,0,0,0,.662.074.655.655,0,0,0,.535-.174,1.181,1.181,0,0,0,.2-.488l-1.661-5.294h1.423l.879,3.151.844-3.151Z" transform="translate(-67.411 -134.1)" fill="#1a1818"/>
      </g>
    </g>
  </g>
</svg>
