<svg xmlns="http://www.w3.org/2000/svg" width="553.667" height="56.674" viewBox="0 0 553.667 56.674">
  <g id="Group_41029" data-name="Group 41029" transform="translate(-210.309 -280.583)">
    <path id="Path_61089" data-name="Path 61089" d="M362.834,288.062c-8.764,1.551-14.956,9.539-13.4,20.229,1.3,8.905,8.905,15.89,19.2,14.139,8.648-1.473,14.725-9.546,13.381-19.973-1.154-8.962-8.793-16.236-19.19-14.394Zm127.116-.053c-8.8,1.376-14.962,9.42-13.68,19.782,1.122,9.089,8.469,16.24,19,14.677,8.813-1.308,14.944-9.442,13.64-19.932-1.113-8.959-8.587-16.153-18.963-14.527Zm146,32.606,0,1.281,12.91,0-.013-1.69c-3.6-.292-5.384-.673-4.724-3.472.533-2.256,1.475-4.275,2.176-6.379l11.757-.006c.719.182,3.317,7.7,3.313,8.672-1.058,1.046-2.545.979-4.324,1.219l-.041,1.63c6.612.232,21.247.022,28.419.023l-.012-1.691c-5.457-.623-6.109-2.2-6.109-8.142l.022-16.979,5.409,6.977c1.74,2.426,3.612,4.777,5.463,7.153,1.88,2.409,3.545,4.707,5.449,7.163.947,1.223,1.727,2.281,2.681,3.523.419.541.857,1.213,1.392,1.82.614.7,1.2.6,2.44.45.543-4.813-.474-22.685.269-27.939.5-3.549,2.055-3.378,5.368-4.054v-1.553c-1.559-.19-11.938-.14-13.984-.041l.006,1.616c6.033,1.019,6.046,2.255,6.039,8.609q-.009,7.43,0,14.862l-.782-.733c-2.758-3.4-6.416-8.521-9.206-12.158-2.336-3.046-6.322-8.127-8.488-11.186-.578-.816-.579-1.041-1.941-1.048-2.15-.006-6.779-.088-8.686.058l0,1.572c3.832,1.019,6.2,1.686,6.2,6.28v16.891c0,2.373-.047,4.753-1.745,5.817a7.6,7.6,0,0,1-6.2.552c-2.065-.823-2.42-2.18-3.266-4.219-2.893-6.977-5.9-14.765-8.707-21.863a53.528,53.528,0,0,1-2.142-5.56l-2.046-.01c-.49,1.883-9.128,22.965-10.554,26.408-1.224,2.952-1.887,4.9-5.141,5.546-1.165.234-1.017.26-1.194.6ZM386.517,290.254a12,12,0,0,1,3.389.671c1.248.521,1.207,1.509,1.207,3.177v22.664c0,3.355-1.6,3.184-4.552,3.463l-.044,1.667,14.518-.018-.028-1.618c-3.257-.489-4.737.1-4.737-3.708,0-2.493-.1-7.579.06-9.787l3.434.007c2.174,2.809,9.229,11.874,10.886,15.118l9.292.006-.35-1.626-1.077-.222a6.729,6.729,0,0,1-3.821-1.953,33.386,33.386,0,0,1-3.365-4.117c-.55-.712-6.1-7.9-6.424-8.555,4.67-1.043,8.714-4.11,8.253-9.772-.419-5.155-5.681-7.107-11.248-7.107H386.517v1.71Zm172.086,0c4.009.229,4.6.973,4.6,3.635v22.877c0,3.351-1.506,3.2-4.547,3.459l-.058,1.668h14.521l-.019-1.616c-3.761-.695-4.752.088-4.74-4.362.007-2.91-.147-6.207.028-9.064,3.816-.655,3.749.353,5.054,1.95,1.564,1.912,8.483,11.316,9.295,13.1h9.358l-.015-1.5c-1.384-.693-2.6.095-5.314-2.262-.393-.34-9.267-11.628-9.772-12.724,5.479-1.443,9.3-4.988,8.114-10.64-1.261-6-8.554-6.23-13.432-6.23-4.356,0-8.716-.01-13.072,0l0,1.709Zm33.756-1.07,0,.857,1.01.318a10.793,10.793,0,0,1,1.235.267c2.388.73,3.149,2.466,3.149,5.187v17.533c0,1.846-.047,4.165-1.071,5.343-1.216,1.394-3.444,1.255-4.044,1.509-.642.271-.546-.044-.552,1.7,4.05,0,10.3.143,13.928-.055l-.012-1.557c-2.494-.7-4.527-.66-5.325-3.024-1.005-2.983-.522-18.01-.575-22.951l.045-1.456c.082-.406.07-.315.171-.477.6.8,2.344,5.794,2.882,7.183.957,2.477,1.875,4.962,2.846,7.418l4.278,11.112c.258.654.487,1.2.717,1.849.257.741.271,1.51,1.238,1.421.779-.071.81-.647,1.095-1.376.234-.6.49-1.23.736-1.832.515-1.258,1-2.415,1.5-3.631l8.6-20.915c.438-.817-.007-.419.648-.6v23.544c0,3.57-2.142,3.434-5.284,3.679l-.07,1.668,15.192-.006-.023-1.613c-3.148-.651-4.709-.271-4.709-3.942V294.1c0-4.029,1.5-3.146,4.676-3.955l0-1.5c-1.656-.276-8.924-.125-11.214-.092-.509,4.672-8.322,20.579-9.393,24.867a12.384,12.384,0,0,1-1.356-3.03l-8.314-21.182c-.287-.572-.034-.668-1.049-.668H592.361v.641Zm-227.7.747c-7.333.734-9.81,8.4-9.581,16.361.223,7.765,3.5,15.058,11.722,14.252,7.291-.717,9.8-8.61,9.534-16.393-.257-7.675-3.523-15.036-11.675-14.22Zm126.464.058c-7.2,1.073-9.536,8.879-9.123,16.942.385,7.517,4.066,15,12.317,13.526,6.939-1.24,9.3-8.94,8.872-16.922-.407-7.53-3.908-14.763-12.066-13.546Zm30.866,30.625,0,1.28h12.933l-.013-1.683c-3.54-.308-5.4-.652-4.737-3.47.543-2.3,1.553-4.289,2.176-6.373l12.1-.012c.625,1.788,2.98,7.266,2.976,8.7-1.077,1.045-2.608.876-4.317,1.211l-.041,1.575,14.306.054c-.006-2.534.06-1.322-2.179-2.129-2.436-.873-2.764-2.646-3.838-5.352-1.16-2.925-2.288-5.768-3.468-8.72-1.151-2.891-6.531-15.96-6.972-17.627l-2.03-.012c-.366,1.585-5.887,14.918-6.96,17.611-1,2.517-4.114,11.083-5.773,12.827-1.934,2.033-3.631,1.1-4.162,2.118Zm-198.733-.8c-.165-3.132-.978-9.407,1.208-10.573a9.594,9.594,0,0,1,2.421-.559c.687-.222.757.229.717-1.8H312.567l.019,1.7c5.789.534,5.7.782,5.7,6.481,0,3.186.194,3.592-1.7,4.48-7.122,3.349-15.621-.893-16.675-11.957-.752-7.884,1.786-15.027,7.465-17.141,5.14-1.913,9.979.454,12.182,5.184.649,1.4.953,3.292,1.744,4.542l1.84.036-.193-11.6c-2.733-.108-1.632-.114-2.93,1.446-1.06-.225-2.714-1.2-4.158-1.617-10.4-2.986-22.851,4.369-21.887,18.7.721,10.689,9.677,16.679,19.959,15.318,3.921-.52,6.128-1.7,9.321-2.633Zm126.89.048c-.449-9.8-.861-10.69,4.31-11.271l.06-1.715H439.466l.032,1.709c5.9.485,5.724.93,5.684,6.683a22.086,22.086,0,0,1-.162,2.933c-.139.663,0,.721-1.74,1.44-7.873,3.271-15.613-1.773-16.5-12.355C425.057,286.8,445,283.886,448,300.195h2.049l-.219-11.65h-1.983l-.855,1.524c-2.7-.693-3.856-2.425-9.593-2.208-9.75.372-17.235,8.049-16.532,19.077.7,10.943,9.628,16.811,19.883,15.519,5.023-.633,6.594-1.966,9.4-2.595Zm259.936-29.689c2.694.612,5.157.372,5.157,3.5v23.092c0,3.793-2.153,2.868-5.125,3.532l-.038,1.522c1.564.184,13.388.14,15.483.038l-.022-1.58c-3.047-.571-5.137-.209-5.137-3.726V293.674c0-3.308,2.2-3.16,5.16-3.471V288.6l-15.474-.048,0,1.624Zm-253.334-.022c2.741.755,5.159.292,5.159,3.523v23.305c0,3.256-2.154,3.091-5.108,3.228l-.061,1.69c4.985-.009,10.633.095,15.49-.019l-.025-1.624c-3.059-.442-5.137-.308-5.137-3.7V293.674c0-1.522.22-2.337,1.493-2.839a14.009,14.009,0,0,1,3.665-.607l0-1.659-15.481-.019,0,1.6Zm-126.895.107a13.184,13.184,0,0,1,3.526.746c1.316.493,1.633,1.076,1.633,2.671v23.305c0,3.435-2.046,2.939-5.109,3.26l-.051,1.656H345.33c0-2.863-.3-1.1-3.526-2.32-1.354-.512-1.632-1.235-1.632-3.024V294.1c0-3.536,1.64-3.774,5.156-3.848l0-1.71H329.856v1.713Zm238.5,13.253.013,1.15c11.729,2.01,13.377-10.019,8.1-13.215-1.646-1-5.845-1.367-8.114-.873v12.938Zm-172.079,1.224c4.632.047,10.476-.2,10.9-6.995.188-2.979-.851-5.044-2.679-6.23-2.093-1.36-5.426-1.041-8.235-1.043l.01,14.268Zm136.993,3.419,10.2.118c-.381-1.448-4.585-11.928-5.157-12.659l-5.047,12.541Zm113.945.006,10.2.111-5.054-12.7-5.15,12.59Z" transform="translate(38.413 3.302)" fill="#1d1d1b" fill-rule="evenodd"/>
    <path id="Path_61090" data-name="Path 61090" d="M238.5,281.054H210.424c-.9,4.845,3.8,6.744,3.8,6.744H244.2l-5.7-6.744Zm8.189,9.763H218.613c-.9,4.847,3.8,6.745,3.8,6.745h29.976l-5.7-6.745Zm80.436-9.763H299.049l-5.7,6.744h29.976s4.7-1.9,3.8-6.744Zm-36.263,9.763-5.7,6.745h29.975s4.7-1.9,3.8-6.745Zm-8.187,9.765-2.513,2.973a21.809,21.809,0,0,1-2.6-2.973h-19.2a33.211,33.211,0,0,1-.517,3.51l-2.965-3.51H226.8c-.9,4.844,3.8,6.745,3.8,6.745h76.347s4.7-1.9,3.8-6.745Zm-6.366-3.019-2.274-6.745H258.576c.035,1.057.089,2.069.089,3.017,0,1.21-.028,2.474-.088,3.729Zm6.027-11.312a7.893,7.893,0,0,0-5.454-5.668H260.7a15.177,15.177,0,0,0-2.137,7.688h16.871c.217-1.643.454-2.02,6.9-2.02ZM273.5,317.579h1.654l-.826-2.059-.827,2.059Zm-14.762-4.62c-2.3,0-4.283,1.589-5.229,4.62h9.67c-.277-2.958-1.22-4.62-4.441-4.62Zm-23.466-2.878v2.411a5.086,5.086,0,0,0,5.087,5.088h10.353a7.725,7.725,0,0,1,7.595-5.387,5.743,5.743,0,0,1,1.813.279c3.628.712,3.819-.209,3.825-.36v-.02a.078.078,0,0,1,0,.02v5.468h8.521l2.579-6.423,2.577,6.423h19.556a5.087,5.087,0,0,0,5.089-5.088V310.08Zm17.644,11.814a15.111,15.111,0,0,0,.846,5.557h8.447v-3.259h-1.455v-.654H266.4v.654h-1.582v3.259h3.691l3.009-7.5H253.027a17.021,17.021,0,0,0-.107,1.941Zm17.681,2.922h7.459l-1.951-4.863h-3.558l-1.95,4.863Zm-1.058,2.636h9.575l-.8-1.983h-7.984l-.8,1.983Zm20.868-7.5H278.579l3.009,7.5H290.4a6.241,6.241,0,0,0,3.612-5.659v-1.839Zm-40.236,0h-6.64v1.839a6.239,6.239,0,0,0,3.611,5.659h4.261a11.1,11.1,0,0,1-1.347-5.557,15.888,15.888,0,0,1,.115-1.941Zm11.04,9.8h-5.839a5.155,5.155,0,0,0,3.365,1.073,3.306,3.306,0,0,0,2.474-1.073Zm21.3,0,.363.908h1.829v.652h-6.725v-.652h2.426l-.363-.908H268.618l-.363.908h1.62v.652H265.61v-.652h1.611l.363-.908h-2.766V331.6s-.766-2.094-3.583-.749v0a5.122,5.122,0,0,1-2.926.883,7.878,7.878,0,0,1-5.022-1.97h-1.7c-.025.252-.038.509-.038.766a7.6,7.6,0,0,0,4.012,6.734h26.43A7.6,7.6,0,0,0,286,330.524c0-.257-.013-.514-.038-.766Z" transform="translate(0)" fill="#1d1d1b"/>
  </g>
</svg>
