<svg xmlns="http://www.w3.org/2000/svg" width="25.53" height="25.53" viewBox="0 0 25.53 25.53">
  <g id="phone-call_4_" data-name="phone-call (4)" transform="translate(0.001)">
    <g id="Group_40565" data-name="Group 40565" transform="translate(-0.001)">
      <g id="Group_40564" data-name="Group 40564" transform="translate(0)">
        <path id="Path_61089" data-name="Path 61089" d="M21.584,3.628a12.924,12.924,0,0,0-17.956,0A12.924,12.924,0,0,0,21.9,21.9,12.924,12.924,0,0,0,21.584,3.628Zm-.29,17.667,0,0a12.062,12.062,0,1,1,3.537-8.525A12.062,12.062,0,0,1,21.29,21.29Z" transform="translate(0.001 0)" fill="#fff"/>
      </g>
    </g>
    <g id="Group_40567" data-name="Group 40567" transform="translate(5.084 5.162)">
      <g id="Group_40566" data-name="Group 40566">
        <path id="Path_61090" data-name="Path 61090" d="M115.652,113.535l-2.421-2.412a1.409,1.409,0,0,0-1.992,0l0,0-1.387,1.387a.306.306,0,0,1-.392.034,15.989,15.989,0,0,1-3.735-3.666.3.3,0,0,1,.03-.392l1.422-1.422a1.409,1.409,0,0,0,0-1.99l-2.421-2.421a1.443,1.443,0,0,0-1.995,0l-.767.767a4.308,4.308,0,0,0-1.068,4.394,12.923,12.923,0,0,0,1.577,3.2,16.757,16.757,0,0,0,4.838,4.752,12.332,12.332,0,0,0,3.584,1.594,4.15,4.15,0,0,0,1,.121,4.36,4.36,0,0,0,3.072-1.292l.659-.659A1.409,1.409,0,0,0,115.652,113.535Zm-.61,1.4,0,0,0-.013-.659.659a3.446,3.446,0,0,1-3.252.931,11.451,11.451,0,0,1-3.326-1.491,15.927,15.927,0,0,1-4.584-4.493,12.061,12.061,0,0,1-1.473-2.981,3.446,3.446,0,0,1,.862-3.52l.767-.767a.547.547,0,0,1,.774,0l0,0,2.421,2.421a.547.547,0,0,1,0,.774l0,0-1.422,1.422a1.159,1.159,0,0,0-.121,1.508,16.97,16.97,0,0,0,3.942,3.869,1.167,1.167,0,0,0,1.491-.129l1.374-1.4a.547.547,0,0,1,.774,0l0,0,2.425,2.43A.547.547,0,0,1,115.042,114.938Z" transform="translate(-100.712 -102.253)" fill="#fff"/>
      </g>
    </g>
  </g>
</svg>
